<?xml version="1.0" encoding="UTF-8" standalone="no"?>
<svg
   width="128"
   height="128"
   version="1.1"
   id="svg3"
   sodipodi:docname="logo-meteorite.svg"
   inkscape:export-filename="logo-meteor.png"
   inkscape:export-xdpi="96"
   inkscape:export-ydpi="96"
   inkscape:version="1.3 (0e150ed6c4, 2023-07-21)"
   xmlns:inkscape="http://www.inkscape.org/namespaces/inkscape"
   xmlns:sodipodi="http://sodipodi.sourceforge.net/DTD/sodipodi-0.dtd"
   xmlns="http://www.w3.org/2000/svg"
   xmlns:svg="http://www.w3.org/2000/svg">
  <sodipodi:namedview
     id="namedview3"
     pagecolor="#ffffff"
     bordercolor="#000000"
     borderopacity="0.25"
     inkscape:showpageshadow="2"
     inkscape:pageopacity="0.0"
     inkscape:pagecheckerboard="0"
     inkscape:deskcolor="#d1d1d1"
     inkscape:zoom="4.7864592"
     inkscape:cx="63.721425"
     inkscape:cy="66.750804"
     inkscape:window-width="1360"
     inkscape:window-height="745"
     inkscape:window-x="-8"
     inkscape:window-y="-8"
     inkscape:window-maximized="1"
     inkscape:current-layer="svg3" />
  <defs
     id="defs1">
    <clipPath
       id="a">
      <path
         d="M-45.534 209.35l29.33 16.933v33.867l-29.33 16.933-29.33-16.933v-33.867z"
         fill-opacity=".506"
         stroke="#fff"
         stroke-width="2.117"
         stroke-opacity=".502"
         id="path1" />
    </clipPath>
    <clipPath
       id="a-9">
      <path
         d="m -45.534,209.35 29.33,16.933 v 33.867 l -29.33,16.933 -29.33,-16.933 v -33.867 z"
         fill-opacity="0.506"
         stroke="#ffffff"
         stroke-width="2.117"
         stroke-opacity="0.502"
         id="path1-63" />
    </clipPath>
  </defs>
  <path
     transform="matrix(-1.6226545,-0.93684,0.93684,-1.6226545,-237.53132,418.71369)"
     d="m -45.534,209.35 29.33,16.933 v 33.867 l -29.33,16.933 -29.33,-16.933 v -33.867 z"
     clip-path="url(#a)"
     stroke-width="4.011"
     stroke="#ffffff"
     id="path2" />
  <path
     transform="matrix(-1.6226545,-0.93684,0.93684,-1.6226545,-111.28446,285.953)"
     d="m -45.534,209.35 29.33,16.933 v 33.867 l -29.33,16.933 -29.33,-16.933 v -33.867 z"
     clip-path="url(#a-9)"
     stroke-width="4.011"
     stroke="#ffffff"
     id="path2-6" />
  <path
     d="m 190.45579,-103.54469 a 37.5,37.5 0 0 0 -37.5,37.5 37.5,37.5 0 0 0 37.5,37.5 37.5,37.5 0 0 0 37.5,-37.5 37.5,37.5 0 0 0 -37.5,-37.5 z m -16.912,12.594 37.76,21.652 c 0,0 1.59,1.212 2.316,1.94 a 17.059,17.059 0 0 1 5.012,12.1 c 0,4.377 -1.671,8.754 -5.012,12.093 -6.68,6.681 -17.514,6.681 -24.195,0 -0.301,-0.3 -0.86,-0.926 -0.86,-0.926 l -19.479,-26.428 8.943,4.272 -13.095,-15.774 13.591,6.856 -13.669,-15.53 15.391,8.825 z m 17.531,13.696 a 3.605,3.605 0 0 0 0,7.209 3.603,3.603 0 0 0 3.602,-3.605 3.603,3.603 0 0 0 -3.602,-3.604 z m -10.383,4.514 a 1.525,1.525 0 0 0 0,3.049 1.525,1.525 0 0 0 0,-3.05 z m 19.33,4.92 -0.865,5.748 -4.39,-3.81 1.546,5.603 -5.56,-1.696 3.693,4.49 -5.771,0.713 5.2,2.6 -4.981,2.998 5.808,0.26 -3.332,4.765 5.412,-2.125 -1.105,5.708 4.08,-4.141 1.312,5.664 2.043,-5.443 3.502,4.64 -0.35,-5.804 5.088,2.816 -2.68,-5.16 5.794,0.502 -4.547,-3.625 5.496,-1.897 -5.627,-1.463 4.25,-3.966 -5.736,0.953 2.27,-5.354 -4.854,3.203 -0.106,-5.812 -3.129,4.9 -2.46,-5.267 z m -16.04,3.52 a 2.176,2.176 0 1 0 0,4.351 2.176,2.176 0 0 0 0,-4.352 z"
     fill="#fefefe"
     stroke-width="6.146"
     stroke-linecap="round"
     stroke-opacity="0.988"
     id="path3-4" />
  <circle
     style="fill:#ffffff;stroke:#000000;stroke-width:0;stroke-linecap:round;stroke-linejoin:round;stroke-dasharray:none;paint-order:fill markers stroke"
     id="path5-9"
     cx="190.45644"
     cy="-66.045265"
     r="37.894737" />
  <path
     style="fill:#000000;stroke:#000000;stroke-width:0;stroke-linecap:round;stroke-linejoin:round;stroke-dasharray:none;paint-order:fill markers stroke"
     d="m 197.547,-38.277546 c -2.21106,-0.974462 -4.83346,-3.091994 -6.06596,-4.898156 -0.57885,-0.848267 -13.15613,-25.192242 -13.05595,-25.27045 0.0406,-0.03169 1.50733,0.931119 3.25938,2.139593 1.75205,1.208472 3.22606,2.167891 3.27557,2.132044 0.0495,-0.03585 -1.817,-3.281817 -4.1478,-7.21326 -2.3308,-3.931445 -4.19841,-7.176613 -4.15024,-7.211488 0.0482,-0.03486 2.2278,1.472965 4.84362,3.350755 2.61583,1.877789 4.83482,3.398222 4.93108,3.378736 0.0963,-0.01947 -1.78284,-3.132302 -4.17579,-6.917373 -2.39294,-3.785072 -4.30256,-6.916877 -4.24359,-6.959571 0.059,-0.04269 2.5203,1.874873 5.46964,4.261257 2.94934,2.386383 5.40534,4.307814 5.45777,4.269847 0.0524,-0.03797 -0.81784,-1.831335 -1.93396,-3.985262 -1.11612,-2.153926 -2.02302,-3.955521 -2.01533,-4.003547 0.0117,-0.07264 21.35267,17.082907 27.21458,21.877137 4.50258,3.682485 6.46888,8.5888 5.60421,13.983641 -1.05026,6.551115 -6.48041,11.611245 -13.11566,12.221228 -2.1207,0.194959 -5.22644,-0.306684 -7.15156,-1.155223 z m 4.82537,-3.366309 1.16505,-2.054815 0.67744,1.2106 c 0.3726,0.665832 0.87409,1.610654 1.11442,2.099604 0.24034,0.48895 0.49922,0.900984 0.5753,0.915635 0.0761,0.01469 0.17861,-0.463957 0.22786,-1.063562 0.2406,-2.929542 0.33459,-3.680528 0.45781,-3.657795 0.0736,0.0137 0.93161,0.659906 1.90661,1.436261 0.975,0.776359 1.81566,1.337107 1.86813,1.246112 0.0525,-0.09098 -0.24123,-1.126411 -0.65267,-2.300919 -0.41144,-1.174509 -0.7113,-2.156467 -0.66637,-2.182131 0.0449,-0.02566 0.94567,0.174593 2.00165,0.445012 2.95741,0.757366 2.96915,0.745525 1.18678,-1.196928 -0.86016,-0.937414 -1.55445,-1.763628 -1.54286,-1.836035 0.0117,-0.0724 1.04045,-0.289768 2.28637,-0.483026 1.24591,-0.193258 2.27546,-0.414954 2.2879,-0.492656 0.0124,-0.0777 -0.97003,-0.563173 -2.18324,-1.078826 l -2.20585,-0.937546 1.96415,-1.345265 c 1.0803,-0.739893 1.92165,-1.403992 1.86968,-1.47577 -0.052,-0.07179 -1.0549,-0.12316 -2.22873,-0.114179 -1.17383,0.009 -2.17816,-0.04434 -2.23185,-0.118486 -0.0537,-0.07414 0.42639,-0.970331 1.06682,-1.991513 0.64045,-1.021183 1.12768,-1.907479 1.08274,-1.96955 -0.045,-0.06208 -1.02771,0.317021 -2.18393,0.842419 l -2.10222,0.955272 0.26645,-2.321818 c 0.14651,-1.277005 0.18256,-2.319472 0.08,-2.316604 -0.10253,0.0028 -0.86014,0.77037 -1.68361,1.705559 l -1.49718,1.700352 -0.68223,-2.380454 c -0.37524,-1.309254 -0.72481,-2.348649 -0.77684,-2.309772 -0.052,0.03887 -0.40571,1.056656 -0.78596,2.261738 -0.38025,1.205079 -0.72093,2.212461 -0.75707,2.238626 -0.0361,0.02618 -0.76284,-0.780643 -1.6149,-1.792909 -0.85205,-1.012267 -1.58387,-1.812624 -1.62625,-1.778568 -0.0424,0.03406 0.0413,1.102439 0.18587,2.37419 0.14463,1.271752 0.21872,2.344302 0.16466,2.383449 -0.0541,0.03914 -1.03752,-0.397562 -2.18544,-0.970458 -1.14792,-0.5729 -2.09737,-0.977672 -2.10988,-0.899496 -0.0126,0.07818 0.48988,1.02553 1.11642,2.105236 0.66719,1.149737 1.04126,2.003906 0.90284,2.06159 -0.12998,0.05417 -0.90257,0.05554 -1.71686,0.0031 -0.81429,-0.05248 -1.81478,-0.07731 -2.22332,-0.05516 l -0.7428,0.04027 2.01529,1.463928 2.01531,1.463929 -2.27069,0.898861 c -2.15134,0.851621 -2.24033,0.910706 -1.6932,1.124194 0.3176,0.123938 1.38342,0.365533 2.36847,0.536893 0.98504,0.171422 1.78258,0.364191 1.77229,0.42851 -0.0103,0.06433 -0.76494,0.890266 -1.67699,1.835433 -0.91205,0.945167 -1.57741,1.731432 -1.4786,1.747247 0.0988,0.01581 1.15539,-0.18271 2.34795,-0.441166 1.36642,-0.296136 2.17431,-0.380787 2.18455,-0.228896 0.009,0.132575 -0.30819,1.135829 -0.70478,2.229473 -0.39658,1.093643 -0.682,2.042031 -0.63428,2.107524 0.0478,0.0655 0.93277,-0.526562 1.96677,-1.315682 1.03401,-0.789118 1.91561,-1.429065 1.95912,-1.422101 0.0435,0.007 0.13687,1.06332 0.20746,2.347449 0.0706,1.284133 0.18977,2.344617 0.26486,2.356636 0.0751,0.01203 0.66079,-0.902815 1.30156,-2.032964 z m -12.13881,-16.560151 c 0.86331,-0.480405 1.21041,-1.144914 1.06583,-2.04047 -0.14734,-0.912631 -0.69342,-1.448847 -1.62784,-1.598414 -0.40108,-0.0642 -0.94954,-0.0097 -1.21879,0.121149 -0.66189,0.321609 -1.19627,1.383792 -1.05024,2.087551 0.15497,0.746776 0.96688,1.580203 1.64519,1.688773 0.30803,0.04931 0.84167,-0.06707 1.18585,-0.258589 z m -1.59637,-8.781115 c 0.53513,-0.34819 0.719,-1.376332 0.34811,-1.946367 -0.3482,-0.535125 -1.37634,-0.719002 -1.94637,-0.348104 -0.53513,0.348191 -0.71901,1.376336 -0.3481,1.946372 0.3482,0.535125 1.37634,0.719001 1.94638,0.348092 z m 9.3699,1.204155 c 1.0564,-0.317689 1.98858,-1.41465 2.17109,-2.554855 0.1673,-1.045211 -0.36002,-2.339049 -1.20449,-2.955364 -2.86139,-2.088294 -6.37006,1.085298 -4.63903,4.195999 0.711,1.277701 2.11871,1.781464 3.67243,1.31422 z"
     id="path4-6-3" />
  <path
     style="fill:#00ff00;stroke:#000000;stroke-width:0;stroke-linecap:round;stroke-linejoin:round;stroke-dasharray:none;paint-order:fill markers stroke"
     d="m 185.71582,-28.764438 c -8.42064,-1.105496 -15.18055,-4.537619 -21.70053,-11.017738 -3.85801,-3.834419 -5.19012,-5.619347 -7.02096,-9.407513 -2.86356,-5.924967 -3.94428,-10.53774 -3.95459,-16.879088 -0.017,-10.443427 3.42011,-18.625834 11.01373,-26.219448 8.72934,-8.729335 19.41117,-12.553975 30.82126,-11.035575 8.88694,1.18263 15.64039,4.504395 21.94749,10.795129 4.5501,4.538307 7.48865,9.313834 9.51334,15.460425 1.2464,3.783847 1.45584,5.373439 1.45584,11.049211 0,5.665272 -0.21096,7.272362 -1.4504,11.049211 -5.74719,17.51301 -22.84196,28.540045 -40.62518,26.205386 z m 23.66673,-9.39873 c 3.04945,-1.37877 5.78755,-3.932099 7.35895,-6.862367 0.92887,-1.732102 1.18506,-3.165322 1.18506,-6.629526 0,-5.196465 -1.00739,-7.542649 -4.76931,-11.107578 -2.76464,-2.619865 -27.84926,-22.868746 -28.33016,-22.868746 -0.17664,0 0.42823,1.484554 1.34416,3.299009 0.91594,1.814455 1.66534,3.438622 1.66534,3.609259 0,0.170638 -2.16265,-1.430174 -4.80587,-3.55736 -2.64323,-2.127186 -4.92102,-3.752464 -5.06176,-3.611728 -0.14073,0.140736 1.37353,2.929522 3.36503,6.197303 1.9915,3.267781 3.54585,6.022621 3.45411,6.121867 -0.0917,0.09925 -1.902,-1.081637 -4.02282,-2.624187 -2.12081,-1.54255 -4.01413,-2.804636 -4.20738,-2.804636 -0.46734,0 0.87536,2.602919 4.22119,8.183078 1.51437,2.525647 2.6511,4.694375 2.52608,4.819397 -0.12502,0.125021 -1.16479,-0.409723 -2.31059,-1.188319 -1.14581,-0.778597 -2.2375,-1.261425 -2.42597,-1.072953 -0.31123,0.31123 7.63118,16.195772 11.7281,23.455795 1.90643,3.378319 4.69049,5.859496 7.83083,6.978897 3.20689,1.143124 8.31974,0.989938 11.25501,-0.337205 z"
     id="path9" />
  <path
     style="fill:#00ff00;stroke:#000000;stroke-width:0;stroke-linecap:round;stroke-linejoin:round;stroke-dasharray:none;paint-order:fill markers stroke"
     d="m 200.96978,-41.212854 c -0.0757,-0.723891 -0.13757,-1.673362 -0.13757,-2.109933 0,-0.436572 -0.0973,-0.853886 -0.21616,-0.927364 -0.11889,-0.07348 -0.98249,0.438086 -1.91912,1.136809 -0.93662,0.698722 -1.73318,1.240173 -1.77013,1.203223 -0.0369,-0.03695 0.21474,-0.901219 0.55932,-1.920599 0.34457,-1.019379 0.62649,-1.929898 0.62649,-2.023374 0,-0.25519 -1.19215,-0.192135 -2.7196,0.143843 -0.74789,0.164507 -1.43827,0.30241 -1.53417,0.306452 -0.0959,0.004 0.49392,-0.717911 1.31071,-1.60434 0.81679,-0.886429 1.45317,-1.707379 1.41419,-1.824333 -0.039,-0.116954 -0.39346,-0.277064 -0.78771,-0.3558 -2.67155,-0.533536 -3.12263,-0.649605 -3.12263,-0.803508 0,-0.09485 0.81999,-0.50059 1.8222,-0.901638 1.0022,-0.401048 1.85136,-0.816693 1.88701,-0.923657 0.0357,-0.106963 -0.71372,-0.753628 -1.66529,-1.437032 l -1.73011,-1.242553 2.1443,-0.05962 c 1.40018,-0.03893 2.1443,-0.140461 2.1443,-0.292581 0,-0.128129 -0.43377,-1.028729 -0.96394,-2.001335 -1.10555,-2.028154 -1.10674,-2.027521 1.42942,-0.75704 0.77378,0.387624 1.5122,0.704772 1.64093,0.704772 0.15655,0 0.19444,-0.329072 0.11443,-0.993702 -0.0658,-0.546535 -0.17388,-1.558541 -0.24017,-2.248902 l -0.12054,-1.255201 1.5631,1.673409 c 0.8597,0.920375 1.60509,1.626426 1.65642,1.569002 0.0513,-0.05742 0.39832,-1.02822 0.77109,-2.157323 0.37278,-1.129104 0.70686,-2.023435 0.74242,-1.987402 0.0356,0.03603 0.31975,0.959844 0.63154,2.052915 0.31179,1.093071 0.61592,2.07082 0.67584,2.172775 0.0599,0.101956 0.79717,-0.557025 1.63832,-1.464401 l 1.52937,-1.649775 -0.008,0.941401 c -0.004,0.517771 -0.0809,1.506242 -0.17007,2.196602 -0.0892,0.690361 -0.13566,1.287055 -0.10333,1.325986 0.0323,0.03893 0.92427,-0.318925 1.98209,-0.795237 1.05782,-0.476312 1.95736,-0.83198 1.99896,-0.790374 0.0416,0.04161 -0.34581,0.795629 -0.86093,1.675606 -0.51512,0.879978 -0.93658,1.741805 -0.93658,1.915173 0,0.256438 0.39983,0.32633 2.14431,0.374832 l 2.1443,0.05962 -1.82144,1.255202 c -1.00179,0.69036 -1.79674,1.341544 -1.76655,1.447075 0.0302,0.105531 0.91932,0.56351 1.97584,1.017732 1.05651,0.454222 1.87922,0.893357 1.82823,0.975856 -0.051,0.0825 -0.89104,0.27419 -1.86679,0.42598 -0.97575,0.15179 -1.89092,0.348181 -2.0337,0.436425 -0.31347,0.193734 -0.15338,0.443422 1.4562,2.271229 0.61546,0.698891 1.03908,1.272227 0.9414,1.274079 -0.0977,0.0019 -1.0461,-0.204406 -2.10761,-0.458351 -1.06151,-0.253946 -1.99293,-0.39881 -2.06982,-0.321922 -0.0769,0.07689 0.14519,1.036267 0.4935,2.131953 0.34831,1.095686 0.56933,1.992156 0.49115,1.992156 -0.0782,0 -0.88326,-0.568244 -1.78907,-1.262764 -1.12934,-0.865915 -1.69541,-1.184293 -1.80123,-1.013073 -0.0849,0.13733 -0.22025,1.082787 -0.30084,2.101015 -0.0806,1.018229 -0.22509,1.899876 -0.32111,1.959218 -0.096,0.05934 -0.61327,-0.7415 -1.14945,-1.779652 -0.53619,-1.03815 -1.0529,-1.887546 -1.14825,-1.887546 -0.0953,0 -0.5512,0.682515 -1.013,1.516701 -1.39232,2.51507 -1.40276,2.521706 -1.56251,0.993291 z"
     id="path10" />
  <path
     style="fill:#00ff00;stroke:#000000;stroke-width:0;stroke-linecap:round;stroke-linejoin:round;stroke-dasharray:none;paint-order:fill markers stroke"
     d="m 195.65581,-66.02133 c -1.41596,-0.722253 -2.0028,-2.43597 -1.34409,-3.925094 1.30294,-2.945512 5.67742,-2.1159 5.68231,1.07764 7.6e-4,0.494719 -0.13841,1.169813 -0.30926,1.500208 -0.70165,1.356845 -2.70005,2.025092 -4.02896,1.347246 z"
     id="path11" />
  <path
     style="fill:#00ff00;stroke:#000000;stroke-width:0;stroke-linecap:round;stroke-linejoin:round;stroke-dasharray:none;paint-order:fill markers stroke"
     d="m 186.95282,-67.326644 c -0.92827,-1.025731 0.16739,-2.456749 1.43783,-1.877902 0.68273,0.311075 0.8703,1.068227 0.43079,1.738998 -0.41382,0.631562 -1.35917,0.701835 -1.86862,0.138904 z"
     id="path12" />
  <path
     style="fill:#00ff00;stroke:#000000;stroke-width:0;stroke-linecap:round;stroke-linejoin:round;stroke-dasharray:none;paint-order:fill markers stroke"
     d="m 188.75222,-58.177136 c -0.66888,-0.249759 -1.34703,-1.427589 -1.19328,-2.072528 0.28056,-1.176927 1.51695,-1.788158 2.69929,-1.33445 0.42807,0.164265 0.95077,1.159674 0.95077,1.810595 0,0.927814 -1.54999,1.934977 -2.45678,1.596383 z"
     id="path13" />
  <path
     id="path21"
     style="fill:#ffffff;stroke:#000000;stroke-width:0;stroke-linecap:round;stroke-linejoin:round;stroke-dasharray:none;paint-order:fill markers stroke"
     d="m 62.812181,28.907239 c -0.704221,0.01045 -1.331896,0.03448 -1.802734,0.07422 -15.928722,1.344345 -29.38724,12.671511 -33.429688,28.134765 -0.789099,3.018479 -1.088565,5.224428 -1.166015,8.578125 -0.08914,3.860126 0.20126,6.629101 1.064453,10.144532 3.057699,12.452757 12.567173,22.70981 24.816406,26.765629 3.048807,1.00948 6.696007,1.71204 9.728516,1.87304 3.537688,0.18781 7.225948,-0.13483 10.677734,-0.93164 14.042355,-3.24155 25.100242,-14.299441 28.341797,-28.341796 2.61528,-11.32936 -0.0702,-23.06043 -7.378906,-32.220703 -1.251184,-1.568156 -4.092593,-4.432564 -5.554688,-5.601563 -5.731374,-4.582443 -11.892192,-7.234465 -19.146484,-8.240234 -1.24505,-0.172621 -4.037728,-0.265719 -6.150391,-0.234375 z m -1.130859,1.587891 c 0.03253,-0.03253 2.893029,1.230629 6.357422,2.80664 12.183969,5.542697 12.100578,5.501288 13.34375,6.753907 2.466543,2.485287 2.892912,6.4579 1.027343,9.558593 -1.046378,1.739148 -2.991983,3.149744 -4.882812,3.539063 -0.938209,0.193173 -2.337966,0.26359 -3.044922,0.152344 -1.589596,-0.250139 -3.30404,-1.133041 -4.355469,-2.242188 C 69.078438,49.957753 60.93566,40.77866 60.50554,40.217786 c -0.145071,-0.189174 -0.136064,-0.195847 0.160157,-0.123047 0.172204,0.04232 0.965081,0.308516 1.761719,0.59375 0.796638,0.285233 1.500073,0.502139 1.564453,0.480469 0.06438,-0.02167 -1.208492,-1.378883 -2.830079,-3.015625 -1.621587,-1.636743 -2.949218,-3.028417 -2.949218,-3.091797 0,-0.1226 8.2e-4,-0.121851 3.386718,1.171875 1.144865,0.437444 2.121482,0.781775 2.169922,0.765625 0.08648,-0.02883 -0.930813,-1.045097 -4.042968,-4.041016 -0.861021,-0.828861 -1.631518,-1.595628 -1.710938,-1.705078 -0.133295,-0.183693 -0.124166,-0.194357 0.105469,-0.123047 0.136823,0.04249 1.602953,0.685958 3.257812,1.429688 1.654858,0.743729 3.030371,1.330957 3.056641,1.304687 0.03813,-0.03813 -1.487809,-1.841146 -2.601562,-3.074219 -0.116455,-0.128926 -0.184874,-0.262391 -0.152344,-0.294921 z m 15.378906,9.443359 c -0.08637,0.01409 -0.305979,0.360472 -0.677734,1.0625 l -0.556641,1.052734 -0.630859,-1.060546 c -0.696036,-1.172159 -0.800188,-1.1918 -0.804688,-0.158204 -0.0034,0.779147 -0.102629,1.408204 -0.222656,1.408204 -0.05011,0 -0.499007,-0.282368 -0.996094,-0.626954 -0.497085,-0.344584 -0.917997,-0.6113 -0.935547,-0.59375 -0.01755,0.01755 0.138068,0.511242 0.345703,1.097657 0.207636,0.586414 0.349592,1.095719 0.314454,1.130859 -0.05454,0.05454 -1.56685,-0.184533 -2.210938,-0.349609 -0.14247,-0.03651 -0.04121,0.122284 0.320312,0.503906 0.792935,0.837014 1.109364,1.258432 1.015626,1.351562 -0.04628,0.04598 -0.528823,0.183796 -1.072266,0.304688 -0.951188,0.211595 -1.132973,0.271106 -1.039063,0.347656 0.02392,0.0195 0.489844,0.211087 1.035157,0.425781 0.545311,0.214697 1.030675,0.42888 1.078125,0.47461 0.04745,0.04573 -0.314134,0.372428 -0.804688,0.726562 -0.490553,0.354137 -0.925274,0.695736 -0.964844,0.759766 -0.05227,0.08457 0.260516,0.09736 1.144532,0.04687 0.66923,-0.03824 1.216796,-0.04011 1.216797,-0.0039 0,0.0362 -0.238345,0.509047 -0.53125,1.050781 -0.292907,0.541732 -0.511879,1.0057 -0.486329,1.03125 0.02555,0.02555 0.448386,-0.140971 0.939453,-0.371094 0.491069,-0.230122 0.951368,-0.417969 1.023438,-0.417969 0.10131,0 0.115386,0.278535 0.06641,1.226563 -0.04996,0.9671 -0.0366,1.191127 0.0625,1.0625 0.472009,-0.612628 1.471707,-1.767578 1.529297,-1.767578 0.03838,0 0.229029,0.492989 0.423828,1.095703 0.194799,0.602712 0.386673,1.095703 0.425781,1.095703 0.03911,0 0.200845,-0.481951 0.361329,-1.070312 0.160482,-0.588364 0.322305,-1.104248 0.359375,-1.148438 0.03707,-0.04419 0.435134,0.320711 0.882812,0.8125 0.44768,0.491789 0.835098,0.873886 0.861328,0.847656 0.02623,-0.02623 -0.03098,-0.550126 -0.126953,-1.162109 -0.09596,-0.611985 -0.147231,-1.139878 -0.113281,-1.173828 0.03395,-0.03394 0.532885,0.142408 1.107422,0.390625 0.574534,0.248216 1.064204,0.429937 1.089844,0.404297 0.02564,-0.02564 -0.234795,-0.491831 -0.578126,-1.035157 l -0.623046,-0.988281 1.072265,-0.07617 c 0.590084,-0.04234 1.144369,-0.09055 1.230469,-0.107422 0.0861,-0.01687 -0.279793,-0.325934 -0.8125,-0.685547 -0.532708,-0.359611 -0.944916,-0.691521 -0.916016,-0.738281 0.0289,-0.04676 0.500016,-0.290165 1.046875,-0.541015 0.922516,-0.42317 1.183928,-0.612094 0.863282,-0.621094 -0.07175,-0.002 -0.614361,-0.08291 -1.205079,-0.181641 l -1.072265,-0.179687 0.792969,-0.923828 c 0.436398,-0.508002 0.77406,-0.942737 0.75,-0.966797 -0.02406,-0.02406 -0.452861,0.04982 -0.951172,0.166015 -0.498312,0.116197 -0.997654,0.212891 -1.111328,0.212891 -0.234892,0 -0.233309,-0.01616 0.177734,-1.402344 0.134783,-0.454552 0.23325,-0.837062 0.21875,-0.851562 -0.0145,-0.0145 -0.442119,0.30137 -0.949219,0.703125 -0.507098,0.401753 -0.941557,0.710787 -0.966797,0.685547 -0.04121,-0.04121 -0.353515,-1.966501 -0.353515,-2.179688 0,-0.06782 -0.01418,-0.1004 -0.04297,-0.0957 z m -25.232422,7.078125 c 0.267542,0.08381 1.469934,1.015775 5.654297,4.353516 4.870417,3.884979 4.927379,3.930043 4.980469,3.876953 0.02456,-0.02456 -0.825229,-1.772002 -1.888672,-3.884766 -1.063443,-2.112763 -1.913685,-3.861706 -1.890625,-3.884766 0.02306,-0.02306 0.243631,0.114811 0.490234,0.306641 0.727989,0.566298 12.820002,10.261929 16.050781,12.869141 1.635937,1.320186 4.806272,3.876908 7.044922,5.683594 5.455633,4.402925 6.698598,5.681806 7.990235,8.21875 1.05228,2.066817 1.498087,3.982203 1.492187,6.408203 -0.0046,1.884151 -0.189936,3.082024 -0.722656,4.68164 -0.750543,2.253679 -1.8405,4.013502 -3.535156,5.708985 -2.085284,2.086301 -4.378387,3.359293 -7.259766,4.029296 -0.62113,0.14443 -1.387455,0.217434 -2.55664,0.246094 C 73.361995,95.735668 70.08219,94.489318 66.85515,91.514661 65.387557,90.161846 65.399583,90.183748 60.796556,81.329114 54.789778,69.774147 52.080461,64.412396 52.191087,64.30177 c 0.04149,-0.04149 1.459087,0.857554 3.150391,1.998047 1.691304,1.140493 3.094981,2.054377 3.119141,2.029297 0.05319,-0.05522 -0.480677,-0.99228 -3.69336,-6.464844 -3.056677,-5.206819 -4.382812,-7.518063 -4.382812,-7.646484 0,-0.225309 0.627014,0.182416 4.59375,3.001953 3.578644,2.543684 4.889755,3.440312 4.947265,3.382812 0.06163,-0.06163 -1.476012,-2.607937 -4.439453,-7.349609 -3.030036,-4.848228 -3.768233,-6.082023 -3.720703,-6.224609 0.006,-0.01815 0.02428,-0.02369 0.0625,-0.01172 z m -22.714844,9.564453 c 0.02698,-0.132597 2.787132,2.772706 5.486328,5.775391 0.186554,0.20753 0.339844,0.353902 0.339844,0.326172 0,-0.02773 -0.446875,-1.305134 -0.992187,-2.839844 -0.545312,-1.534711 -0.990235,-2.834312 -0.990235,-2.888672 0,-0.05436 0.04101,-0.09961 0.0918,-0.09961 0.05079,0 1.421508,1.384788 3.046875,3.076172 1.625369,1.691383 2.969145,3.062104 2.984375,3.046874 0.01523,-0.01523 -0.231719,-0.816207 -0.548828,-1.779296 -0.317109,-0.963088 -0.562622,-1.818091 -0.544922,-1.900391 0.03296,-0.153216 0.904202,0.631085 6.554688,5.892578 4.638733,4.319392 4.895086,4.58771 5.466797,5.753906 0.717111,1.462793 0.943017,2.485052 0.867187,3.914063 -0.03582,0.675017 -0.153115,1.468497 -0.283203,1.927734 -0.757365,2.673639 -2.895225,4.719093 -5.675781,5.427735 -0.967186,0.246488 -2.667849,0.269717 -3.664063,0.05078 -2.015134,-0.442864 -3.751564,-1.687201 -4.875,-3.494141 -0.623373,-1.002637 -8.067505,-18.254511 -7.984375,-18.503906 0.01915,-0.05745 0.758696,0.558435 1.642578,1.369141 0.883882,0.810707 1.624345,1.455733 1.646485,1.433593 0.02214,-0.02214 -0.552968,-1.455052 -1.279297,-3.183593 -0.726329,-1.728542 -1.307253,-3.215278 -1.289063,-3.304688 z m 41.63086,4.294922 c -0.94703,0.0032 -1.616768,0.29971 -2.244141,0.994141 -0.583078,0.645399 -0.805434,1.223675 -0.802734,2.091797 0.0046,1.455332 0.818215,2.57264 2.205078,3.029296 0.427576,0.140791 1.475495,0.03011 2.044922,-0.214843 0.616387,-0.265165 1.279,-0.904983 1.617187,-1.5625 0.712841,-1.385918 0.04847,-3.277426 -1.414062,-4.025391 -0.527169,-0.269602 -0.729895,-0.3148 -1.40625,-0.3125 z m -9.236328,2.445312 c -0.653342,0.01621 -1.206282,0.531309 -1.207032,1.277344 -7.06e-4,0.700094 0.298507,1.074725 0.990235,1.236328 0.890382,0.20802 1.513672,-0.319625 1.513672,-1.28125 0,-0.516684 -0.193754,-0.848247 -0.626953,-1.072265 -0.223391,-0.11552 -0.452145,-0.165558 -0.669922,-0.160157 z M 43.03679,68.674817 c -0.01998,-0.01999 -0.165024,0.483373 -0.322265,1.117188 -0.157241,0.633809 -0.331252,1.152343 -0.388672,1.152343 -0.05742,0 -0.475122,-0.360316 -0.927734,-0.800781 -0.452619,-0.440457 -0.822266,-0.743778 -0.822266,-0.673828 0,0.06995 0.07686,0.59589 0.171875,1.167969 0.09501,0.572072 0.144285,1.068605 0.109375,1.103515 -0.03491,0.03491 -0.547613,-0.125718 -1.138672,-0.355468 -0.591051,-0.229756 -1.090295,-0.403859 -1.109375,-0.386719 -0.01908,0.01714 0.25047,0.457324 0.59961,0.976562 0.349132,0.519245 0.634765,0.991182 0.634765,1.050782 0,0.06572 -0.358328,0.113593 -0.912109,0.121093 -0.502262,0.0068 -1.04081,0.04187 -1.197266,0.07813 -0.265036,0.06142 -0.217568,0.108788 0.708984,0.685547 0.546967,0.340478 1.012627,0.649087 1.035157,0.685547 0.02253,0.03646 -0.425206,0.295279 -0.996094,0.576172 -0.570889,0.280894 -1.039063,0.542651 -1.039063,0.582031 10e-7,0.077 1.673944,0.408555 2.0625,0.408203 0.129153,-1.2e-4 0.234448,0.03507 0.234376,0.07813 -8e-5,0.04305 -0.329179,0.47347 -0.730469,0.957032 -0.401297,0.483555 -0.710973,0.896448 -0.689453,0.917968 0.02152,0.02152 0.514819,-0.08837 1.095703,-0.24414 0.580877,-0.155764 1.08698,-0.252864 1.125,-0.214844 0.03802,0.03802 -0.05908,0.546076 -0.214844,1.126953 -0.155765,0.580884 -0.266544,1.071347 -0.246094,1.091797 0.02045,0.02045 0.448149,-0.295348 0.949219,-0.703125 0.501071,-0.407777 0.93687,-0.715474 0.96875,-0.683594 0.03188,0.03188 0.130643,0.577193 0.220703,1.212891 0.09006,0.635699 0.180279,1.15625 0.199219,1.15625 0.01894,0 0.27054,-0.468956 0.558594,-1.042969 0.288046,-0.574007 0.565437,-1.044922 0.617187,-1.044922 0.05175,0 0.368413,0.434386 0.703125,0.964844 0.590463,0.935777 0.609018,0.955242 0.673828,0.652344 0.03673,-0.171706 0.07328,-0.722348 0.08008,-1.22461 0.0068,-0.502254 0.04679,-0.914183 0.08984,-0.914062 0.04305,1.21e-4 0.500973,0.282924 1.017578,0.626953 0.516612,0.344029 0.953583,0.58235 0.970703,0.53125 0.01712,-0.0511 -0.134215,-0.50466 -0.33789,-1.009766 -0.371533,-0.921377 -0.438558,-1.191439 -0.292969,-1.191406 0.04305,1e-5 0.454858,0.06947 0.914062,0.154297 0.459211,0.08483 0.974281,0.179634 1.146485,0.210937 0.28195,0.05127 0.221912,-0.03569 -0.607422,-0.86914 l -0.919922,-0.925781 1.154297,-0.294922 c 0.635677,-0.162838 1.15625,-0.330474 1.15625,-0.371094 0,-0.04062 -0.481956,-0.248236 -1.070312,-0.462891 -0.588364,-0.214647 -1.085779,-0.404775 -1.105469,-0.421875 -0.01969,-0.0171 0.39212,-0.368969 0.914062,-0.78125 0.521948,-0.412275 0.949219,-0.773457 0.949219,-0.804687 0,-0.03123 -0.517023,-0.02832 -1.148438,0.0078 -0.978975,0.05601 -1.148437,0.04334 -1.148437,-0.08984 0,-0.0859 0.211821,-0.578292 0.470703,-1.09375 0.258882,-0.515466 0.446336,-0.9375 0.416016,-0.9375 -0.03032,0 -0.517733,0.23342 -1.083985,0.517578 -0.566245,0.284152 -1.053631,0.493243 -1.082031,0.464843 -0.02836,-0.02839 -0.02786,-0.566448 0.002,-1.195312 0.02978,-0.628863 0.02911,-1.144531 -0.002,-1.144531 -0.03106,0 -0.373472,0.427779 -0.761719,0.949219 -0.516487,0.693677 -0.728222,0.907534 -0.789062,0.798828 -0.04573,-0.08171 -0.250326,-0.610143 -0.455078,-1.175782 -0.204753,-0.565631 -0.390167,-1.046416 -0.410157,-1.066406 z m 34.503907,1.595703 c -0.0064,-6.5e-4 -0.01235,0.0023 -0.01758,0.0078 -0.04788,0.05054 -0.326031,0.843302 -0.619141,1.761718 -0.293109,0.918421 -0.607639,1.871767 -0.699219,2.119141 -0.163588,0.441901 -0.170565,0.44727 -0.378906,0.261719 -0.116629,-0.103871 -0.76178,-0.822744 -1.433594,-1.597656 -0.671808,-0.774919 -1.299311,-1.473955 -1.394531,-1.552735 -0.219343,-0.181461 -0.220919,-0.120121 -0.01758,1.759766 0.182999,1.691821 0.199702,2.714844 0.04492,2.714844 -0.06121,0 -0.949007,-0.398814 -1.97461,-0.886719 -1.783918,-0.84866 -2.147522,-0.991187 -2.070312,-0.804688 0.01913,0.04622 0.442716,0.8328 0.941406,1.748047 0.498695,0.915246 0.938353,1.792501 0.976563,1.949219 l 0.06836,0.285156 -2.277344,0.0293 -2.279297,0.02734 1.867188,1.357422 c 1.026307,0.746212 1.8694,1.396742 1.875,1.445312 0.0056,0.04857 -0.62352,0.341029 -1.398438,0.650391 -2.202494,0.879279 -2.71289,1.104372 -2.71289,1.195312 0,0.129976 0.519375,0.269696 2.49414,0.669922 0.999217,0.202515 1.838785,0.389566 1.865235,0.416016 0.07484,0.07484 -0.234804,0.440617 -1.728516,2.042969 -0.762476,0.817933 -1.369509,1.503537 -1.349609,1.523437 0.0199,0.0199 0.854585,-0.127432 1.855469,-0.326172 2.088548,-0.414709 2.603515,-0.452185 2.603515,-0.189453 0,0.09661 -0.29284,1.034194 -0.650391,2.082031 -0.357546,1.047836 -0.619451,1.935237 -0.582031,1.972657 0.07795,0.07795 0.771799,-0.387247 2.484375,-1.664063 0.660116,-0.492144 1.231955,-0.894135 1.271485,-0.894531 0.09797,-9.83e-4 0.16828,0.591311 0.300781,2.541015 0.06188,0.910475 0.148646,1.749645 0.191406,1.865235 0.08708,0.235398 0.398677,-0.225525 1.736328,-2.568359 0.841587,-1.474003 0.62537,-1.583903 2.025391,1.042968 0.531838,0.9979 1.004881,1.814453 1.050781,1.814453 0.09506,0 0.163988,-0.481962 0.314453,-2.191406 0.142884,-1.623321 0.213294,-2.139056 0.314453,-2.302734 0.06369,-0.103051 0.396513,0.09925 1.300782,0.794922 1.443307,1.110368 2.267672,1.703937 2.375,1.710937 0.154233,0.01002 0.0683,-0.332114 -0.548828,-2.210937 -0.344321,-1.04826 -0.62492,-1.96536 -0.625,-2.03711 -2.24e-4,-0.184756 0.187231,-0.164956 1.388671,0.140625 1.652138,0.420219 2.817037,0.661066 2.910157,0.603516 0.139888,-0.08646 -0.05146,-0.343909 -1.220704,-1.65625 -1.255762,-1.40946 -1.453297,-1.671221 -1.367187,-1.810547 0.05539,-0.08962 0.784547,-0.241155 3.375,-0.701172 0.530956,-0.09429 0.966797,-0.20722 0.966797,-0.25 0,-0.08753 -1.508911,-0.805327 -3.080078,-1.466797 C 85.138554,81.450719 84.63406,81.23062 84.58952,81.2041 c -0.04454,-0.02652 0.564707,-0.494764 1.355469,-1.041016 0.790758,-0.546245 1.647825,-1.165242 1.904296,-1.375 l 0.466797,-0.380859 -0.310547,-0.06641 c -0.170369,-0.0365 -1.108166,-0.07238 -2.083984,-0.08008 -0.975817,-0.0077 -1.836902,-0.05461 -1.914062,-0.103516 -0.173373,-0.109879 -0.09821,-0.269025 1.037109,-2.164062 1.038533,-1.733485 1.051169,-1.762196 0.667969,-1.666016 -0.162607,0.04081 -1.087884,0.429333 -2.056641,0.863281 -0.968756,0.433954 -1.78491,0.765871 -1.8125,0.738281 -0.02759,-0.02759 0.02052,-0.65655 0.105469,-1.396484 0.08495,-0.739935 0.184526,-1.766597 0.222656,-2.283203 l 0.07031,-0.939453 -0.507813,0.492187 c -0.27944,0.271369 -0.978727,1.032078 -1.552734,1.689453 -0.574014,0.657381 -1.087528,1.184252 -1.142578,1.169922 -0.05505,-0.01433 -0.257006,-0.562632 -0.449219,-1.21875 C 77.87891,71.016714 77.636914,70.28026 77.540689,70.2705 Z M 63.04265,70.944348 c -0.362343,0.005 -0.724637,0.07572 -0.933594,0.203125 -0.368488,0.224685 -0.811888,0.918153 -0.921875,1.445313 -0.102682,0.492141 0.346643,1.373215 0.912109,1.789062 0.702483,0.516612 1.550004,0.409455 2.306641,-0.292968 0.56955,-0.528743 0.71188,-1.084589 0.486328,-1.896485 -0.116577,-0.419633 -0.63922,-0.973935 -1.076172,-1.138672 -0.209738,-0.07908 -0.491615,-0.113238 -0.773437,-0.109375 z" />
</svg>
