<?xml version="1.0" encoding="UTF-8" standalone="no"?>
<svg
   width="176"
   height="176"
   version="1.1"
   id="svg9"
   sodipodi:docname="player-helmet-leader-p.svg"
   inkscape:version="1.3 (0e150ed6c4, 2023-07-21)"
   xmlns:inkscape="http://www.inkscape.org/namespaces/inkscape"
   xmlns:sodipodi="http://sodipodi.sourceforge.net/DTD/sodipodi-0.dtd"
   xmlns="http://www.w3.org/2000/svg"
   xmlns:svg="http://www.w3.org/2000/svg">
  <sodipodi:namedview
     id="namedview9"
     pagecolor="#ffffff"
     bordercolor="#000000"
     borderopacity="0.25"
     inkscape:showpageshadow="2"
     inkscape:pageopacity="0.0"
     inkscape:pagecheckerboard="0"
     inkscape:deskcolor="#d1d1d1"
     inkscape:zoom="2.8465909"
     inkscape:cx="87.824351"
     inkscape:cy="88"
     inkscape:window-width="1360"
     inkscape:window-height="697"
     inkscape:window-x="-8"
     inkscape:window-y="-8"
     inkscape:window-maximized="1"
     inkscape:current-layer="svg9" />
  <defs
     id="defs1">
    <clipPath
       id="a">
      <path
         d="M202.297 144.81c13.099-2.734 15.213-12.953 22.657-23.16 7.443-10.202 10.76-11.514 11.356-27.821.278-7.563-2.842-18.433-3.953-24.397-1.284-6.893-6.552-13.576-10.858-19.408-11.539-12.699-13.009-16.57-24.371-17.349-11.365-.775-18.454 2.124-26.241 7.678-7.787 5.555-14.135 9.33-17.177 17.54-3.043 8.208-11.549 16.605-11.7 26.12-.15 9.514 1.959 19.002 5.137 28.181 3.178 9.176 6.674 11.005 11.968 16.442 5.29 5.437 11.304 10.41 17.152 12.438 13.478 2.75 22.053 4.343 26.03 3.735z"
         style="isolation:isolate"
         fill="#958358"
         stroke-width="13.951"
         id="path1" />
    </clipPath>
  </defs>
  <path
     transform="matrix(1.0116 0 0 1.11438 -114.977 -10.895)"
     clip-path="url(#a)"
     d="M202.297 144.81c13.099-2.734 15.213-12.953 22.657-23.16 7.443-10.202 10.76-11.514 11.356-27.821.278-7.563-2.842-18.433-3.953-24.397-1.284-6.893-6.552-13.576-10.858-19.408-11.539-12.699-13.009-16.57-24.371-17.349-11.365-.775-18.454 2.124-26.241 7.678-7.787 5.555-14.135 9.33-17.177 17.54-3.043 8.208-11.549 16.605-11.7 26.12-.15 9.514 1.959 19.002 5.137 28.181 3.178 9.176 6.674 11.005 11.968 16.442 5.29 5.437 11.304 10.41 17.152 12.438 13.478 2.75 22.053 4.343 26.03 3.735z"
     style="isolation:isolate"
     fill="#3a3422"
     stroke="#090909"
     stroke-width="18.291"
     id="path2" />
  <path
     d="m 102.265,81.884129 c 2.05,0.54 4.312,-1.04 4.886,-2.964 0.574,-1.925 -0.758,-3.469 -2.808,-4.008 -2.05,-0.539 -3.86,1.018 -4.433,2.943 -0.573,1.926 0.305,3.49 2.355,4.03 z M 52.47,110.69813 c 0,4.224 4.31,7.649 8.43,7.649 4.117,0 6.484,-3.425 6.484,-7.65 0,-4.223 -4.032,-6.794 -8.15,-6.794 -4.118,0 -6.763,2.57 -6.763,6.795 z m 21.915,20.109 c 1.484,1.689 4.507,1.474 6.247,-0.04 1.74,-1.513 1.537,-3.752 0.054,-5.44 -1.484,-1.69 -4.09,-1.235 -5.83,0.279 -1.74,1.513 -1.954,3.512 -0.47,5.2 z M 60.64,62.753129 c 1.224,1.372 3.361,0.879 4.456,-0.655 1.094,-1.534 0.73,-3.528 -0.493,-4.9 -1.224,-1.372 -3.04,-0.705 -4.135,0.83 -1.094,1.533 -1.052,3.353 0.172,4.725 z m 32.946,29.898 c -0.25,2.47 1.268,4.884 2.91,5.278 1.644,0.395 2.79,-1.38 3.04,-3.85 0.25,-2.47 -1.207,-4.36 -2.85,-4.753 -1.643,-0.395 -2.85,0.855 -3.1,3.325 z m -27.406,-6.424 c 1.927,-3.13 0.925,-8.276 -1.525,-10.767 -2.45,-2.49 -5.423,-1.384 -7.35,1.747 -1.929,3.13 -0.702,7.475 1.748,9.966 2.451,2.49 5.198,2.186 7.126,-0.945 z m -19.706,10.298 c 2.132,-0.215 3.017,-1.826 2.212,-3.198 -0.805,-1.373 -2.996,-1.987 -5.127,-1.772 -2.132,0.215 -2.64,1.69 -1.836,3.062 0.805,1.373 2.62,2.123 4.751,1.908 z m 37.621,-34.39 c 5.633,-0.915 7.82,-6.834 5.545,-11.782 -2.274,-4.947 -8.147,-7.05 -13.78,-6.134 -5.633,0.915 -6.834,6.316 -4.56,11.263 2.274,4.947 7.162,7.568 12.795,6.653 z"
     style="isolation:isolate"
     fill="#201c13"
     paint-order="fill markers stroke"
     id="path3" />
  <path
     d="M 103.30364,87.999016 85.939353,93.813994 85.774415,112.12577 74.879341,97.407807 57.413338,102.9094 68.041753,87.999016 57.412422,73.087713 74.877518,78.590225 85.776239,63.872266 85.941186,82.183122 Z"
     fill="#fff00f"
     stroke="#0a0a0a"
     stroke-width="5.49793"
     id="path3-2" />
</svg>
